<svg width="16" height="12" viewBox="0 0 16 12" fill="none" xmlns="http://www.w3.org/2000/svg">
<path d="M15.4402 5.7C13.9252 2.1825 11.0752 0 8.00017 0C4.92517 0 2.07517 2.1825 0.560172 5.7C0.518875 5.79462 0.497559 5.89676 0.497559 6C0.497559 6.10324 0.518875 6.20537 0.560172 6.3C2.07517 9.8175 4.92517 12 8.00017 12C11.0752 12 13.9252 9.8175 15.4402 6.3C15.4815 6.20537 15.5028 6.10324 15.5028 6C15.5028 5.89676 15.4815 5.79462 15.4402 5.7ZM8.00017 10.5C5.62267 10.5 3.37267 8.7825 2.07517 6C3.37267 3.2175 5.62267 1.5 8.00017 1.5C10.3777 1.5 12.6277 3.2175 13.9252 6C12.6277 8.7825 10.3777 10.5 8.00017 10.5ZM8.00017 3C7.40683 3 6.82681 3.17595 6.33346 3.50559C5.84011 3.83524 5.4556 4.30377 5.22853 4.85195C5.00147 5.40013 4.94206 6.00333 5.05782 6.58527C5.17357 7.16721 5.45929 7.70176 5.87885 8.12132C6.29841 8.54088 6.83296 8.8266 7.4149 8.94236C7.99684 9.05811 8.60005 8.9987 9.14822 8.77164C9.6964 8.54458 10.1649 8.16006 10.4946 7.66671C10.8242 7.17336 11.0002 6.59334 11.0002 6C11.0002 5.20435 10.6841 4.44129 10.1215 3.87868C9.55888 3.31607 8.79582 3 8.00017 3ZM8.00017 7.5C7.7035 7.5 7.41349 7.41203 7.16682 7.2472C6.92014 7.08238 6.72788 6.84811 6.61435 6.57402C6.50082 6.29994 6.47112 5.99834 6.52899 5.70736C6.58687 5.41639 6.72973 5.14912 6.93951 4.93934C7.14929 4.72956 7.41657 4.5867 7.70754 4.52882C7.99851 4.47094 8.30011 4.50065 8.5742 4.61418C8.84829 4.72771 9.08255 4.91997 9.24738 5.16664C9.4122 5.41332 9.50017 5.70333 9.50017 6C9.50017 6.39782 9.34214 6.77935 9.06083 7.06066C8.77953 7.34196 8.398 7.5 8.00017 7.5Z" fill="#5D5A6F"/>
</svg>
